<?xml version="1.0" encoding="UTF-8"?>
<!DOCTYPE svg PUBLIC "-//W3C//DTD SVG 1.1//EN" "http://www.w3.org/Graphics/SVG/1.1/DTD/svg11.dtd">
<svg xmlns="http://www.w3.org/2000/svg" version="1.1" width="50px" height="50px" style="shape-rendering:geometricPrecision; text-rendering:geometricPrecision; image-rendering:optimizeQuality; fill-rule:evenodd; clip-rule:evenodd" xmlns:xlink="http://www.w3.org/1999/xlink">
<g><path style="opacity:0.893" fill="#000000" d="M 17.5,1.5 C 41.1541,0.318958 50.6541,11.319 46,34.5C 38.7573,46.8068 28.2573,50.6402 14.5,46C 2.19317,38.7573 -1.64016,28.2573 3,14.5C 6.16246,8.16411 10.9958,3.83077 17.5,1.5 Z M 16.5,5.5 C 21.5459,5.00577 25.8792,6.8391 29.5,11C 26.8754,15.1614 23.2087,17.3281 18.5,17.5C 18.6621,19.5273 18.4955,21.5273 18,23.5C 12.5908,17.8784 12.0908,11.8784 16.5,5.5 Z M 27.5,42.5 C 28.0916,39.8728 28.4249,37.2062 28.5,34.5C 27.5,34.5 26.5,34.5 25.5,34.5C 23.9249,31.1471 24.5916,28.3138 27.5,26C 28.8333,25.3333 30.1667,25.3333 31.5,26C 33.5268,27.8793 35.8602,29.046 38.5,29.5C 38.6104,32.0588 37.9438,34.3921 36.5,36.5C 33.4822,38.5258 30.4822,40.5258 27.5,42.5 Z"/></g>
</svg>
