<?xml version="1.0" encoding="UTF-8" standalone="no"?>
<!DOCTYPE svg PUBLIC "-//W3C//DTD SVG 1.1//EN" "http://www.w3.org/Graphics/SVG/1.1/DTD/svg11.dtd">
<svg xmlns="http://www.w3.org/2000/svg" version="1.1" viewBox="0 0 50 50">
<path fill="#000000" d="
  M 18.55 40.55
  C 26.18 32.42 34.31 24.84 42.18 16.95
  C 47.15 11.97 40.62 4.57 35.00 10.01
  C 28.89 15.91 23.05 22.43 16.73 28.05
  C 12.52 31.79 16.15 37.18 20.17 33.18
  Q 27.47 25.91 34.81 18.57
  A 0.77 0.76 43.0 0 1 35.85 18.54
  L 36.37 18.98
  Q 36.88 19.43 36.40 19.91
  Q 29.78 26.62 23.07 33.25
  Q 20.63 35.67 19.06 36.25
  C 14.35 37.99 10.45 31.69 13.81 28.32
  Q 23.02 19.10 32.22 9.90
  Q 35.27 6.86 37.20 6.21
  C 41.66 4.73 46.74 9.31 45.95 13.96
  Q 45.57 16.19 42.93 18.87
  Q 24.78 37.31 19.42 42.42
  C 10.67 50.75 -2.14 38.75 7.88 28.67
  Q 16.86 19.64 25.79 10.55
  C 26.32 10.01 27.37 9.56 27.90 10.24
  A 0.98 0.98 0.0 0 1 27.82 11.53
  Q 18.75 20.65 9.68 29.68
  C 0.52 38.79 11.85 47.70 18.55 40.55
  Z"
/>
</svg>
