<?xml version="1.0" standalone="no"?>
<!DOCTYPE svg PUBLIC "-//W3C//DTD SVG 20010904//EN"
 "http://www.w3.org/TR/2001/REC-SVG-20010904/DTD/svg10.dtd">
<svg version="1.0" xmlns="http://www.w3.org/2000/svg"
 width="1136.000000pt" height="1136.000000pt" viewBox="0 0 1136.000000 1136.000000"
 preserveAspectRatio="xMidYMid meet">
<metadata>
Created by potrace 1.14, written by Peter Selinger 2001-2017
</metadata>
<g transform="translate(0.000000,1136.000000) scale(0.100000,-0.100000)"
fill="#000000" stroke="none">
<path d="M2363 11333 c-29 -27 -95 -108 -138 -168 -11 -16 -24 -33 -30 -39 -5
-6 -16 -23 -24 -38 -8 -15 -21 -36 -30 -45 -9 -10 -22 -30 -30 -45 -8 -16 -18
-28 -23 -28 -4 0 -8 -4 -8 -10 0 -5 -29 -54 -63 -107 -70 -108 -266 -433 -317
-528 -18 -33 -39 -67 -46 -76 -8 -8 -14 -23 -14 -31 0 -9 -3 -18 -7 -20 -9 -4
-23 -29 -118 -218 -79 -155 -116 -236 -119 -257 -1 -7 -5 -16 -9 -19 -11 -11
-8 -259 4 -344 5 -41 12 -93 15 -115 3 -22 7 -47 9 -55 2 -8 7 -37 10 -65 4
-27 8 -57 11 -66 3 -9 7 -34 10 -55 2 -22 6 -46 9 -54 3 -8 7 -35 10 -59 3
-24 10 -64 15 -88 6 -24 13 -63 16 -86 10 -71 12 -82 14 -82 2 0 5 -16 14 -75
3 -19 11 -60 17 -90 7 -30 13 -64 15 -75 4 -32 14 -89 19 -105 2 -8 7 -31 11
-50 3 -19 7 -39 8 -45 7 -29 20 -111 18 -117 -1 -5 3 -8 9 -8 5 0 7 -4 4 -10
-3 -5 1 -38 10 -72 9 -35 18 -79 20 -98 7 -54 11 -69 17 -76 4 -3 4 -12 2 -19
-3 -7 0 -16 5 -20 6 -3 9 -10 7 -14 -3 -4 2 -36 10 -72 8 -35 17 -75 20 -89 2
-14 8 -43 13 -65 14 -61 32 -148 37 -170 2 -11 8 -40 15 -65 6 -25 13 -54 15
-65 2 -11 20 -85 40 -165 43 -173 40 -161 46 -180 3 -8 12 -35 19 -60 7 -25
23 -61 35 -80 23 -38 121 -136 216 -215 13 -11 49 -41 80 -67 31 -27 59 -48
62 -48 3 0 14 -8 24 -17 22 -20 36 -32 110 -88 28 -21 52 -40 52 -42 0 -3 -68
-147 -180 -378 -93 -194 -104 -217 -102 -227 1 -5 -3 -8 -8 -8 -6 0 -10 -4
-10 -9 0 -5 -23 -57 -50 -115 -28 -58 -52 -109 -52 -113 -1 -5 -13 -30 -27
-58 -14 -27 -26 -52 -26 -55 -1 -3 -9 -19 -18 -37 -9 -18 -17 -39 -17 -48 0
-8 -4 -15 -8 -15 -4 0 -14 -17 -21 -37 -8 -20 -30 -73 -51 -117 -21 -45 -57
-126 -80 -181 -24 -55 -50 -116 -58 -135 -9 -19 -16 -37 -17 -40 -1 -3 -8 -21
-16 -40 -8 -19 -30 -73 -48 -120 -19 -47 -37 -94 -42 -105 -26 -64 -42 -126
-42 -166 0 -42 39 -173 78 -264 7 -16 30 -70 50 -120 44 -108 40 -96 114 -265
32 -74 74 -166 92 -205 18 -38 33 -74 35 -80 1 -5 24 -57 52 -115 27 -58 60
-127 72 -155 13 -27 43 -93 68 -145 25 -52 46 -97 47 -100 0 -3 27 -59 59
-125 32 -66 72 -149 88 -185 16 -36 33 -72 38 -80 6 -8 14 -24 19 -35 42 -96
531 -1081 591 -1190 15 -27 73 -140 130 -250 57 -110 107 -201 112 -203 4 -2
8 -11 8 -21 0 -9 4 -21 9 -27 5 -5 43 -70 84 -144 98 -177 111 -201 141 -249
15 -22 26 -43 26 -46 0 -3 5 -11 10 -18 6 -7 30 -40 55 -74 47 -66 75 -81 164
-86 23 -1 41 -4 41 -7 0 -3 20 -5 45 -5 25 0 45 -2 45 -5 0 -3 17 -6 38 -6 20
-1 71 -5 112 -8 175 -13 370 -25 515 -30 61 -2 110 -5 110 -6 0 -13 1511 -20
1825 -7 256 10 405 16 495 22 249 14 271 16 425 30 36 4 88 8 115 10 28 2 50
5 50 5 0 1 14 4 30 6 68 11 103 25 128 54 15 16 27 33 27 37 0 5 14 24 30 43
16 19 30 38 30 41 0 4 24 46 53 95 29 49 75 130 102 179 27 50 53 93 59 97 6
4 7 8 2 8 -5 0 -4 6 1 13 13 15 52 87 138 252 37 72 90 173 118 225 104 199
397 787 397 798 0 7 5 12 10 12 6 0 10 4 10 9 0 5 56 123 124 262 176 363 236
489 236 500 0 5 5 9 12 9 6 0 9 3 6 6 -4 3 11 41 32 84 59 119 110 230 110
241 0 5 5 9 10 9 6 0 9 3 8 8 -2 7 22 63 53 123 10 20 16 39 12 43 -3 3 -1 6
5 6 7 0 12 4 12 9 0 5 12 35 27 67 15 33 28 61 29 64 1 5 14 36 77 172 19 42
33 79 29 82 -3 3 0 6 6 6 7 0 12 5 12 11 0 5 9 29 19 52 10 23 31 71 46 107
15 36 33 79 40 95 25 61 64 162 89 232 38 109 40 150 9 233 -3 8 -7 21 -9 29
-3 13 -38 107 -55 146 -4 11 -24 58 -43 105 -19 47 -43 103 -52 125 -10 22
-18 42 -19 45 -1 3 -13 30 -27 62 -14 31 -29 67 -33 80 -4 12 -13 30 -20 38
-7 8 -16 26 -20 40 -7 24 -19 51 -86 195 -15 33 -41 91 -59 129 -42 94 -94
204 -145 311 -23 50 -64 135 -90 190 -26 55 -77 160 -112 234 -95 196 -92 174
-23 223 33 23 60 46 60 50 0 4 6 8 13 8 6 0 28 15 48 33 20 17 54 46 75 62 21
17 52 42 69 57 16 15 41 37 55 48 65 54 161 156 176 188 14 31 49 137 59 185
2 10 7 28 11 40 5 12 8 27 9 32 1 14 55 244 65 280 5 17 12 44 15 60 4 28 7
42 20 98 3 12 8 38 11 57 3 19 8 38 10 41 2 3 6 19 8 35 5 27 8 39 21 97 3 12
7 37 10 55 2 18 7 36 10 41 2 5 8 26 11 47 3 22 7 46 8 54 1 8 5 24 9 35 3 11
8 36 11 55 3 19 8 46 11 60 3 14 7 36 10 50 3 14 7 34 9 45 17 84 68 355 71
375 2 14 4 25 5 25 1 0 4 11 6 25 2 14 12 63 20 110 9 47 18 99 20 115 2 17 6
41 9 55 9 46 34 189 41 235 1 11 3 20 4 20 1 0 5 22 14 95 3 25 7 54 10 65 2
11 7 43 10 70 4 28 9 63 12 78 25 146 21 242 -14 329 -32 80 -131 290 -141
298 -3 3 -24 41 -46 85 -48 96 -192 348 -288 505 -39 63 -75 125 -81 137 -6
13 -14 23 -18 23 -5 0 -8 6 -8 13 0 7 -8 22 -18 33 -10 10 -21 26 -24 34 -3 8
-26 47 -52 85 -50 76 -57 85 -111 160 -19 28 -38 58 -41 68 -4 9 -10 17 -14
17 -4 0 -19 17 -33 39 -14 21 -46 59 -72 85 -37 38 -51 46 -73 43 -41 -7 -56
-11 -62 -17 -3 -3 -32 -19 -65 -35 -33 -17 -61 -33 -63 -37 -2 -5 -8 -8 -13
-8 -10 0 -168 -97 -241 -147 -26 -18 -52 -33 -57 -33 -5 0 -11 -3 -13 -7 -1
-5 -46 -37 -98 -72 -52 -36 -96 -68 -98 -73 -2 -4 -8 -8 -13 -8 -10 0 -230
-159 -241 -175 -5 -6 -8 -6 -8 0 0 6 -3 6 -8 0 -6 -9 -46 -41 -152 -122 -39
-30 -176 -138 -180 -143 -3 -3 -36 -32 -75 -65 -138 -118 -182 -171 -213 -260
-12 -32 -35 -120 -32 -120 1 0 -3 -12 -9 -28 -6 -15 -13 -38 -15 -50 -2 -12
-12 -51 -21 -87 -9 -36 -19 -76 -21 -89 -3 -12 -12 -53 -20 -90 -21 -90 -24
-102 -30 -130 -3 -13 -12 -54 -20 -90 -8 -36 -16 -75 -18 -86 -3 -18 -18 -94
-21 -105 -1 -3 -5 -16 -8 -30 -8 -28 -16 -72 -22 -110 -2 -14 -6 -36 -9 -50
-13 -56 -17 -77 -26 -125 -6 -27 -12 -60 -15 -72 -3 -13 -7 -31 -9 -40 -6 -27
-20 -107 -21 -118 -1 -5 -7 -35 -13 -65 -6 -30 -14 -68 -17 -85 -14 -89 -7
-82 -98 -79 -588 22 -1905 22 -2394 0 -51 -2 -93 -3 -93 -1 0 1 -5 27 -11 56
-6 30 -13 68 -16 84 -2 17 -14 73 -24 125 -11 52 -22 111 -25 130 -3 19 -8 42
-11 50 -3 8 -7 26 -8 40 -1 14 -11 68 -23 120 -11 52 -24 111 -27 130 -3 19
-8 42 -10 50 -2 8 -7 29 -10 45 -5 30 -7 41 -23 105 -5 19 -9 38 -10 43 -1 4
-2 8 -3 10 0 1 -2 13 -5 27 -10 57 -67 305 -100 430 -19 74 -37 144 -39 156
-26 116 -89 196 -275 347 -41 34 -77 64 -80 68 -3 3 -27 23 -55 44 -27 20 -52
40 -55 44 -3 4 -21 18 -40 31 -19 13 -42 30 -50 37 -8 8 -46 37 -85 64 -38 28
-83 61 -100 74 -159 125 -647 441 -777 503 -96 46 -120 49 -155 15z m2020
-4984 c32 -11 75 -30 95 -43 99 -63 184 -186 199 -291 16 -106 6 -166 -46
-275 -23 -49 -128 -152 -181 -177 -54 -26 -110 -44 -110 -36 0 3 -6 1 -12 -5
-7 -5 -51 -8 -98 -7 -87 2 -186 29 -220 60 -9 8 -21 15 -27 15 -5 0 -26 17
-46 38 -101 104 -138 184 -140 308 -1 68 21 174 36 174 6 0 7 3 4 6 -4 4 2 19
13 34 11 16 20 31 20 35 0 6 78 83 112 111 21 17 88 47 104 47 8 0 14 3 14 7
0 4 6 7 13 8 141 21 183 20 270 -9z m2767 21 c3 -2 9 -2 14 -1 29 6 153 -50
209 -93 49 -39 110 -120 132 -176 67 -173 18 -368 -122 -480 -42 -34 -143 -93
-143 -84 0 3 -10 -1 -22 -7 -23 -13 -185 -21 -203 -11 -5 3 -23 7 -39 9 -17 2
-35 8 -40 13 -6 6 -18 10 -27 10 -9 0 -22 7 -29 15 -6 8 -16 13 -20 12 -5 -1
-36 22 -69 51 -45 39 -70 72 -96 125 -39 82 -46 109 -45 187 1 30 1 63 1 72 0
10 11 45 24 79 43 109 111 181 221 235 39 19 85 36 103 39 18 2 35 5 36 7 3 3
106 1 115 -2z m-1070 -2195 c298 -10 373 -16 480 -36 47 -9 62 -19 105 -63 28
-28 90 -112 140 -186 49 -74 93 -136 97 -138 5 -2 8 -8 8 -14 0 -5 14 -29 30
-53 17 -24 30 -48 30 -53 0 -5 7 -15 15 -22 9 -7 13 -15 11 -17 -2 -3 3 -13
12 -24 24 -28 302 -512 302 -526 0 -6 4 -13 9 -15 13 -5 225 -437 244 -499 11
-33 15 -69 12 -88 -9 -51 -81 -221 -99 -233 -6 -4 -8 -8 -3 -8 4 0 -4 -21 -18
-47 -14 -27 -25 -53 -25 -60 0 -6 -3 -13 -7 -15 -5 -1 -17 -21 -28 -43 -10
-22 -28 -52 -38 -67 -10 -16 -15 -28 -11 -28 4 0 1 -8 -7 -17 -8 -10 -21 -31
-29 -48 -8 -16 -17 -32 -20 -35 -7 -7 -61 -107 -79 -147 -8 -18 -19 -33 -23
-33 -4 0 -8 -4 -8 -9 0 -13 -160 -284 -172 -292 -6 -3 -9 -10 -7 -14 1 -4 -3
-14 -9 -24 -7 -9 -49 -74 -94 -144 -46 -71 -90 -139 -98 -151 -35 -53 -55 -81
-60 -86 -3 -3 -17 -21 -30 -40 -56 -80 -91 -105 -160 -115 -25 -3 -58 -8 -74
-11 -114 -19 -379 -28 -806 -28 -509 0 -732 10 -900 40 -67 12 -88 31 -175
149 -31 44 -66 91 -76 105 -10 14 -26 40 -35 58 -9 17 -20 32 -25 32 -5 0 -9
4 -9 10 0 5 -25 48 -56 96 -30 47 -58 93 -61 102 -4 10 -9 19 -12 22 -8 6 -68
105 -117 191 -20 35 -44 78 -54 94 -66 112 -100 176 -100 185 0 5 -4 10 -10
10 -5 0 -10 6 -10 13 0 7 -13 34 -30 60 -16 26 -27 47 -25 47 3 0 -5 17 -18
37 -23 38 -123 239 -151 303 -8 19 -23 55 -34 80 -12 29 -18 61 -16 90 5 64 6
70 16 70 4 0 8 6 8 14 0 30 183 405 220 451 5 6 8 12 8 15 -1 5 27 57 72 135
31 53 52 98 50 104 -1 2 2 7 8 10 5 3 31 44 57 91 27 47 54 88 59 92 6 4 7 8
2 8 -5 0 -2 8 6 18 8 9 39 58 68 107 30 50 57 92 62 93 4 2 8 9 8 14 0 6 35
63 77 127 153 230 217 306 266 315 142 25 213 31 522 41 110 4 201 8 202 9 4
3 442 -2 613 -9z"/>
</g>
</svg>
